<svg xmlns="http://www.w3.org/2000/svg" version="1.1" xmlns:xlink="http://www.w3.org/1999/xlink" xmlns:svgjs="http://svgjs.com/svgjs" width="1440" height="554" preserveAspectRatio="none" viewBox="0 0 1440 554"><g mask="url(&quot;#SvgjsMask1120&quot;)" fill="none"><rect width="1440" height="554" x="0" y="0" fill="rgba(51, 204, 149, 1)"></rect><path d="M0,470.464C93.306,465.429,187.249,463.532,269.994,420.119C357.482,374.218,448.589,312.807,479.407,218.938C509.668,126.766,445.887,33.817,428.132,-61.556C411.29,-152.025,437.427,-257.272,377.718,-327.294C317.957,-397.377,208.312,-384.292,123.108,-419.267C24.868,-459.593,-59.569,-579.768,-161.038,-548.445C-262.89,-517.004,-279.33,-377.701,-324.427,-281.117C-358.185,-208.818,-363.034,-130.976,-390.878,-56.2C-428.677,45.311,-538.309,129.91,-517.028,236.119C-496.136,340.387,-386.247,406.402,-289.392,450.302C-199.498,491.047,-98.554,475.782,0,470.464" fill="#2bad7f"></path><path d="M1440 1224.5810000000001C1567.452 1258.269 1706.683 1212.761 1818.923 1143.616 1932.268 1073.79 2018.796 964.29 2065.115 839.481 2109.661 719.447 2107.058 586.191 2071.432 463.214 2038.594 349.861 1950.216 268.046 1873.574 178.30599999999998 1796.339 87.87099999999998 1730.228-15.817999999999984 1621.387-63.74800000000005 1504.955-115.02099999999996 1370.852-133.062 1248.916-96.77300000000002 1127.1689999999999-60.541000000000054 1042.8029999999999 41.89499999999998 955.71 134.361 865.027 230.63799999999998 761.523 323.294 731.856 452.18399999999997 701.131 585.67 702.518 745.783 790.89 850.4390000000001 878.538 954.238 1053.416 904.546 1171.118 972.3879999999999 1279.782 1035.021 1318.742 1192.53 1440 1224.5810000000001" fill="#52d4a5"></path></g><defs><mask id="SvgjsMask1120"><rect width="1440" height="554" fill="#ffffff"></rect></mask></defs></svg>